[img]http://a.imageshack.us/img191/6651/7ca47910cf6d13f1c5a1727.png[/img]
[code]

Plot:
In the age-old battle between cats and dogs, one crazed feline has taken things a paw too far. Kitty Galore, formerly an agent for cat spy organization MEOWS, has gone rogue and hatched a diabolical plan to not only bring her canine enemies to heel, but take down her former kitty comrades and make the world her scratching post. Faced with this unprecedented threat, cats and dogs will be forced to join forces for the first time in history in an unlikely alliance to save themselves -- and their humans.
 
http://www.imdb.com/title/tt1287468/

Reason for REPACK: Cats.And.Dogs.2.TS.V2.XviD-TA.part006 was missing. THIS REPACK contains the complete archive.

Complete name                    : Cats.And.Dogs.2.TS.V2.XviD-TA.avi
Sources: 
Audio                            : Ours (new Line for 1st 2 min. thanks kracker)
Video                            : Relizlab

Format                           : AVI
Format/Info                      : Audio Video Interleave
File size                        : 1.26 GiB
Duration                         : 1h 16mn
Overall bit rate                 : 2 366 Kbps
Writing library                  : VirtualDub build 32661/release

Video
ID                               : 0
Format                           : MPEG-4 Visual
Format profile                   : AdvancedSimple@L5
Format settings, BVOP            : Yes
Format settings, QPel            : No
Format settings, GMC             : No warppoints
Format settings, Matrix          : Default (MPEG)
Codec ID                         : XVID
Codec ID/Hint                    : XviD
Duration                         : 1h 16mn
Bit rate                         : 2 228 Kbps
Width                            : 688 pixels
Height                           : 288 pixels
Display aspect ratio             : 2.35:1
Frame rate                       : 25.000 fps
Resolution                       : 24 bits
Colorimetry                      : 4:2:0
Scan type                        : Progressive
Bits/(Pixel*Frame)               : 0.450
Stream size                      : 1.19 GiB (94%)
Writing library                  : XviD 1.2.1 (UTC 2008-12-04)

Audio
ID                               : 1
Format                           : MPEG Audio
Format version                   : Version 1
Format profile                   : Layer 3
Codec ID                         : 55
Codec ID/Hint                    : MP3
Duration                         : 1h 16mn
Bit rate mode                    : Constant
Bit rate                         : 128 Kbps
Channel(s)                       : 2 channels
Sampling rate                    : 44.1 KHz
Resolution                       : 16 bits
Stream size                      : 69.8 MiB (5%)
Alignment                        : Split accross interleaves
Interleave, duration             : 40 ms (1.00 video frame)
Interleave, preload duration     : 500 ms

Notes: In V2 we reworked the video and Added the 1st 2 min of the movie with new English Line audio (thanks kracker)

NEEDS: We are looking for Audio Syncers and any other Exclusive CAM sources. Both Audio and Video
All deotting done bt "dedots crew" find us on irc Efnet channel #ddcrew

Contact us: ta_rg@hushmail.com

Greetz: IMAGiNE - PrisM - KINGDOM - LU - SLUGGER - Relizlab - ELEKTRI4KA
and all those that contribute... Spanks

[/code]
Screens:
Screens:
[img]http://a.imageshack.us/img69/8079/2v1vkzn.png[/img]
[img]http://a.imageshack.us/img37/2923/33y6uzn.png[/img]
[img]http://a.imageshack.us/img690/4305/dcu8f6.png[/img]
[img]http://a.imageshack.us/img227/2806/chuoh.png[/img]